<svg width="692" height="692" xmlns="http://www.w3.org/2000/svg" xmlns:xlink="http://www.w3.org/1999/xlink" overflow="hidden"><defs><clipPath id="clip0"><path d="M246-366 938-366 938 326 246 326Z" fill-rule="evenodd" clip-rule="evenodd"/></clipPath><clipPath id="clip1"><path d="M467.121-265.118 467.121-199.087 743.853-199.087 743.853-265.118ZM247-365 937-365 937 326 247 326Z" fill-rule="evenodd" clip-rule="evenodd"/></clipPath><clipPath id="clip2"><path d="M247-365 937-365 937 326 247 326Z" fill-rule="evenodd" clip-rule="evenodd"/></clipPath><clipPath id="clip3"><path d="M247-365 937-365 937 326 247 326Z" fill-rule="evenodd" clip-rule="evenodd"/></clipPath></defs><g clip-path="url(#clip0)" transform="translate(-246 366)"><g clip-path="url(#clip1)"><g clip-path="url(#clip2)"><g clip-path="url(#clip3)"><path d="M546.25 373.75C546.25 381.656 539.781 388.125 531.875 388.125L488.75 388.125C480.844 388.125 474.375 381.656 474.375 373.75L474.375 359.375C474.375 351.469 480.844 345 488.75 345L531.875 345C539.781 345 546.25 351.469 546.25 359.375L546.25 373.75ZM174.656 301.875 216.344 202.688C218.5 197.656 223.531 194.063 229.281 194.063L459.281 194.063C465.031 194.063 470.063 197.656 472.219 202.688L515.344 301.875 174.656 301.875ZM215.625 373.75C215.625 381.656 209.156 388.125 201.25 388.125L158.125 388.125C150.219 388.125 143.75 381.656 143.75 373.75L143.75 359.375C143.75 351.469 150.219 345 158.125 345L201.25 345C209.156 345 215.625 351.469 215.625 359.375L215.625 373.75ZM546.25 301.875 499.531 191.906C493.063 175.375 477.25 165.313 460 165.313L402.5 165.313 402.5 150.938C402.5 135.125 389.563 122.188 373.75 122.188L316.25 122.188C300.438 122.188 287.5 135.125 287.5 150.938L287.5 165.313 230 165.313C212.75 165.313 196.938 175.375 190.469 191.906L143.75 301.875C120.031 301.875 100.625 321.281 100.625 345L100.625 460C100.625 475.812 113.563 488.75 129.375 488.75L143.75 488.75 143.75 539.063C143.75 554.875 156.688 567.813 172.5 567.813L186.875 567.813C202.688 567.813 215.625 554.875 215.625 539.063L215.625 488.75 474.375 488.75 474.375 539.063C474.375 554.875 487.313 567.813 503.125 567.813L517.5 567.813C533.313 567.813 546.25 554.875 546.25 539.063L546.25 488.75 560.625 488.75C576.438 488.75 589.375 475.812 589.375 460L589.375 345C589.375 321.281 569.969 301.875 546.25 301.875Z" transform="matrix(1 0 -0 1.00145 247 -365)"/></g></g></g></g></svg>